<svg class="toyplot-canvas-Canvas" xmlns:toyplot="http://www.sandia.gov/toyplot" xmlns:xlink="http://www.w3.org/1999/xlink" xmlns="http://www.w3.org/2000/svg" width="400.0px" height="300.0px" viewBox="0 0 400.0 300.0" preserveAspectRatio="xMidYMid meet" style="background-color:transparent;border-color:#292724;border-style:none;border-width:1.0;fill:rgb(16.1%,15.3%,14.1%);fill-opacity:1.0;font-family:Helvetica;font-size:12px;opacity:1.0;stroke:rgb(16.1%,15.3%,14.1%);stroke-opacity:1.0;stroke-width:1.0" id="tb39901d334fe41fc838a7c0289ccb1ee"><g class="toyplot-coordinates-Cartesian" id="t032350dba86947faab3d90a83329f819"><clipPath id="t713d1c778f494c448fe7f980b61502b8"><rect x="35.0" y="35.0" width="330.0" height="230.0" /></clipPath><g clip-path="url(#t713d1c778f494c448fe7f980b61502b8)"><g class="toytree-mark-Toytree" id="t2adff6da0d304b63b1a02d172eb12fac"><g class="toytree-Edges" style="stroke:rgb(14.5%,14.5%,14.5%);stroke-opacity:1.0;stroke-linecap:round;stroke-width:2.0;fill:none"><path d="M 114.7 223.3 L 114.7 243.3 L 306.3 243.3" id="9,0" style="" /><path d="M 178.6 203.3 L 178.6 216.6 L 306.3 216.6" id="8,1" style="" /><path d="M 178.6 203.3 L 178.6 190.0 L 306.3 190.0" id="8,2" style="" /><path d="M 242.4 150.0 L 242.4 163.3 L 306.3 163.3" id="10,3" style="" /><path d="M 242.4 150.0 L 242.4 136.7 L 306.3 136.7" id="10,4" style="" /><path d="M 178.6 130.0 L 178.6 110.0 L 306.3 110.0" id="11,5" style="" /><path d="M 178.6 70.0 L 178.6 83.4 L 306.3 83.4" id="12,6" style="" /><path d="M 178.6 70.0 L 178.6 56.7 L 306.3 56.7" id="12,7" style="" /><path d="M 114.7 223.3 L 114.7 203.3 L 178.6 203.3" id="9,8" style="" /><path d="M 50.9 161.7 L 50.9 223.3 L 114.7 223.3" id="14,9" style="" /><path d="M 178.6 130.0 L 178.6 150.0 L 242.4 150.0" id="11,10" style="" /><path d="M 114.7 100.0 L 114.7 130.0 L 178.6 130.0" id="13,11" style="" /><path d="M 114.7 100.0 L 114.7 70.0 L 178.6 70.0" id="13,12" style="" /><path d="M 50.9 161.7 L 50.9 100.0 L 114.7 100.0" id="14,13" style="" /></g><g class="toytree-AdmixEdges" style="fill:rgb(0.0%,0.0%,0.0%);fill-opacity:0.0;stroke:rgb(90.6%,54.1%,76.5%);stroke-opacity:0.6;font-size:14px;stroke-linecap:round;stroke-width:5" /><g class="toytree-Nodes" style="fill:rgb(40.0%,76.1%,64.7%);fill-opacity:1.0;stroke:rgb(14.9%,14.9%,14.9%);stroke-opacity:1.0;stroke-width:1.5" /><g class="toytree-TipLabels" style="fill:rgb(14.5%,14.5%,14.5%);fill-opacity:1.0;font-family:Helvetica;font-size:12px;font-weight:300;vertical-align:baseline;white-space:pre;stroke:none"><g class="toytree-TipLabel" transform="translate(306.289,243.284)"><text x="15.0" y="3.066" style="fill:rgb(14.5%,14.5%,14.5%);fill-opacity:1.0">r0</text></g><g class="toytree-TipLabel" transform="translate(306.289,216.631)"><text x="15.0" y="3.066" style="fill:rgb(14.5%,14.5%,14.5%);fill-opacity:1.0">r1</text></g><g class="toytree-TipLabel" transform="translate(306.289,189.979)"><text x="15.0" y="3.066" style="fill:rgb(14.5%,14.5%,14.5%);fill-opacity:1.0">r2</text></g><g class="toytree-TipLabel" transform="translate(306.289,163.326)"><text x="15.0" y="3.066" style="fill:rgb(14.5%,14.5%,14.5%);fill-opacity:1.0">r3</text></g><g class="toytree-TipLabel" transform="translate(306.289,136.674)"><text x="15.0" y="3.066" style="fill:rgb(14.5%,14.5%,14.5%);fill-opacity:1.0">r4</text></g><g class="toytree-TipLabel" transform="translate(306.289,110.021)"><text x="15.0" y="3.066" style="fill:rgb(14.5%,14.5%,14.5%);fill-opacity:1.0">r5</text></g><g class="toytree-TipLabel" transform="translate(306.289,83.3689)"><text x="15.0" y="3.066" style="fill:rgb(14.5%,14.5%,14.5%);fill-opacity:1.0">r6</text></g><g class="toytree-TipLabel" transform="translate(306.289,56.7164)"><text x="15.0" y="3.066" style="fill:rgb(14.5%,14.5%,14.5%);fill-opacity:1.0">r7</text></g></g></g></g></g></svg>