<svg xmlns="http://www.w3.org/2000/svg" width="900" height="390" viewBox="0 0 900 390">
<rect width="100%" height="100%" fill="white"/>
<style>text{font-family:Helvetica,Arial,sans-serif;fill:#263238}.title{font-size:19px;font-weight:700}.label{font-size:14px}.tick,.note{font-size:12px}</style>
<text class="title" x="20" y="28">Paired normalized age-MAE difference (ToyTree minus ape)</text>
<line x1="779.1" y1="52" x2="779.1" y2="330" stroke="#c62828" stroke-width="1.5"/>
<line x1="247.9" y1="55" x2="247.9" y2="330" stroke="#eeeeee"/>
<text class="tick" x="247.9" y="352" text-anchor="middle">-0.07</text>
<line x1="323.8" y1="55" x2="323.8" y2="330" stroke="#eeeeee"/>
<text class="tick" x="323.8" y="352" text-anchor="middle">-0.06</text>
<line x1="399.7" y1="55" x2="399.7" y2="330" stroke="#eeeeee"/>
<text class="tick" x="399.7" y="352" text-anchor="middle">-0.05</text>
<line x1="475.6" y1="55" x2="475.6" y2="330" stroke="#eeeeee"/>
<text class="tick" x="475.6" y="352" text-anchor="middle">-0.04</text>
<line x1="551.5" y1="55" x2="551.5" y2="330" stroke="#eeeeee"/>
<text class="tick" x="551.5" y="352" text-anchor="middle">-0.03</text>
<line x1="627.4" y1="55" x2="627.4" y2="330" stroke="#eeeeee"/>
<text class="tick" x="627.4" y="352" text-anchor="middle">-0.02</text>
<line x1="703.2" y1="55" x2="703.2" y2="330" stroke="#eeeeee"/>
<text class="tick" x="703.2" y="352" text-anchor="middle">-0.01</text>
<line x1="779.1" y1="55" x2="779.1" y2="330" stroke="#eeeeee"/>
<text class="tick" x="779.1" y="352" text-anchor="middle">0.00</text>
<line x1="855.0" y1="55" x2="855.0" y2="330" stroke="#eeeeee"/>
<text class="tick" x="855.0" y="352" text-anchor="middle">0.01</text>
<text class="label" x="198" y="92.0" text-anchor="end">Strict clock</text>
<line x1="776.1" y1="87.0" x2="778.9" y2="87.0" stroke="#1565c0" stroke-width="3"/>
<circle cx="777.9" cy="87.0" r="5" fill="#1565c0"/>
<text class="label" x="198" y="146.0" text-anchor="end">Discrete K=2</text>
<line x1="769.5" y1="141.0" x2="778.4" y2="141.0" stroke="#1565c0" stroke-width="3"/>
<circle cx="774.5" cy="141.0" r="5" fill="#1565c0"/>
<text class="label" x="198" y="200.0" text-anchor="end">Discrete K=3</text>
<line x1="764.6" y1="195.0" x2="790.6" y2="195.0" stroke="#1565c0" stroke-width="3"/>
<circle cx="778.3" cy="195.0" r="5" fill="#1565c0"/>
<text class="label" x="198" y="254.0" text-anchor="end">Correlated</text>
<line x1="449.6" y1="249.0" x2="518.9" y2="249.0" stroke="#1565c0" stroke-width="3"/>
<circle cx="484.1" cy="249.0" r="5" fill="#1565c0"/>
<text class="label" x="198" y="308.0" text-anchor="end">Relaxed (chronos)</text>
<line x1="252.6" y1="303.0" x2="307.3" y2="303.0" stroke="#1565c0" stroke-width="3"/>
<circle cx="280.6" cy="303.0" r="5" fill="#1565c0"/>
<text class="note" x="210" y="378">Negative values favor ToyTree; paired bootstrap 95% intervals among eligible fits.</text>
</svg>
